<svg width="50" height="45" viewBox="0 0 50 45" fill="none" xmlns="http://www.w3.org/2000/svg">
<path id="Union" fill-rule="evenodd" clip-rule="evenodd" d="M18.75 3.75C26.8042 3.75 33.3333 9.62626 33.3333 16.875C33.3333 24.1237 26.8042 30 18.75 30C16.9995 30 15.3255 29.7232 13.776 29.2173C13.093 28.9943 12.3335 28.9444 11.5927 29.1082C9.60289 29.548 7.5716 29.8271 5.52305 29.9411C6.29339 28.1144 6.55953 26.1397 6.28873 24.189C6.22849 23.7551 6.0708 23.3745 5.88347 23.0596C4.78846 21.2188 4.16667 19.115 4.16667 16.875C4.16667 9.62626 10.6958 3.75 18.75 3.75ZM37.5 16.875C37.5 7.5552 29.1053 0 18.75 0C8.39466 0 0 7.5552 0 16.875C0 19.7188 0.783288 22.4034 2.16795 24.7583C2.38407 26.4942 1.98359 28.2528 1.01527 29.7779L0.929824 29.9125C-0.155834 31.6224 1.21601 33.75 3.40424 33.75C6.46227 33.75 9.50276 33.4221 12.4623 32.7772C14.4305 33.4076 16.5481 33.75 18.75 33.75C29.1053 33.75 37.5 26.1948 37.5 16.875ZM42.4067 15.484C41.5272 16.1517 41.4157 17.3346 42.1576 18.1261C44.4523 20.5743 45.8333 23.7333 45.8333 27.1875C45.8333 29.5923 45.1643 31.851 43.9864 33.8264C43.7975 34.1432 43.6408 34.5232 43.5802 34.9547C43.2823 37.0747 43.5871 39.2222 44.4566 41.198C42.1935 41.0834 39.9492 40.7799 37.7525 40.2926C37.011 40.1281 36.2495 40.1776 35.5642 40.4027C33.8963 40.9503 32.0935 41.25 30.2083 41.25C26.3704 41.25 22.8604 40.007 20.1401 37.9418C19.2607 37.2741 17.9463 37.3745 17.2044 38.166C16.4625 38.9576 16.5741 40.1405 17.4535 40.8082C20.8972 43.4226 25.3508 45 30.2083 45C32.5465 45 34.7941 44.6343 36.8818 43.9615C40.0282 44.6499 43.2613 45 46.5132 45C48.7382 45 50.1331 42.8367 49.0292 41.098L49.0292 41.098L48.9384 40.955C47.8917 39.3065 47.4612 37.4046 47.7001 35.5283C49.1688 33.0381 50 30.1974 50 27.1875C50 22.8157 48.2474 18.8075 45.3424 15.7082C44.6005 14.9167 43.2862 14.8163 42.4067 15.484ZM10.4167 18.75C11.5673 18.75 12.5 17.9105 12.5 16.875C12.5 15.8395 11.5673 15 10.4167 15C9.26607 15 8.33333 15.8395 8.33333 16.875C8.33333 17.9105 9.26607 18.75 10.4167 18.75ZM20.8333 16.875C20.8333 17.9105 19.9006 18.75 18.75 18.75C17.5994 18.75 16.6667 17.9105 16.6667 16.875C16.6667 15.8395 17.5994 15 18.75 15C19.9006 15 20.8333 15.8395 20.8333 16.875ZM27.0833 18.75C28.2339 18.75 29.1667 17.9105 29.1667 16.875C29.1667 15.8395 28.2339 15 27.0833 15C25.9327 15 25 15.8395 25 16.875C25 17.9105 25.9327 18.75 27.0833 18.75Z" fill="white"/>
</svg>
