<svg width="37" height="46" viewBox="0 0 37 46" fill="none" xmlns="http://www.w3.org/2000/svg">
<path id="Union" fill-rule="evenodd" clip-rule="evenodd" d="M1.80488 5.75C1.80488 2.57436 4.22909 0 7.21951 0H29.7805C30.7773 0 31.5854 0.858121 31.5854 1.91667C31.5854 2.97521 30.7773 3.83333 29.7805 3.83333H7.21951C6.22271 3.83333 5.41463 4.69145 5.41463 5.75C5.41463 6.80855 6.22271 7.66667 7.21951 7.66667H31.5854C34.5758 7.66667 37 10.241 37 13.4167V40.25C37 43.4256 34.5758 46 31.5854 46H7.21951C4.22909 46 1.80488 43.4256 1.80488 40.25L1.80488 38.3333C0.808071 38.3333 0 37.4752 0 36.4167C0 35.3581 0.808071 34.5 1.80488 34.5V30.6667C0.808071 30.6667 0 29.8085 0 28.75C0 27.6915 0.808071 26.8333 1.80488 26.8333L1.80488 23C0.808071 23 0 22.1419 0 21.0833C0 20.0248 0.808071 19.1667 1.80488 19.1667L1.80488 17.25C1.80488 16.1915 2.61295 15.3333 3.60976 15.3333C4.60656 15.3333 5.41463 16.1915 5.41463 17.25V19.1667C6.41144 19.1667 7.21951 20.0248 7.21951 21.0833C7.21951 22.1419 6.41144 23 5.41463 23V26.8333C6.41144 26.8333 7.21951 27.6915 7.21951 28.75C7.21951 29.8085 6.41144 30.6667 5.41463 30.6667V34.5C6.41144 34.5 7.21951 35.3581 7.21951 36.4167C7.21951 37.4752 6.41144 38.3333 5.41463 38.3333V40.25C5.41463 41.3085 6.22271 42.1667 7.21951 42.1667H31.5854C32.5822 42.1667 33.3902 41.3085 33.3902 40.25V13.4167C33.3902 12.3581 32.5822 11.5 31.5854 11.5H7.21951C4.22909 11.5 1.80488 8.92564 1.80488 5.75ZM21.6585 21.0833C21.6585 22.1419 20.8505 23 19.8537 23C18.8569 23 18.0488 22.1419 18.0488 21.0833C18.0488 20.0248 18.8569 19.1667 19.8537 19.1667C20.8505 19.1667 21.6585 20.0248 21.6585 21.0833ZM25.2683 21.0833C25.2683 24.259 22.8441 26.8333 19.8537 26.8333C16.8632 26.8333 14.439 24.259 14.439 21.0833C14.439 17.9077 16.8632 15.3333 19.8537 15.3333C22.8441 15.3333 25.2683 17.9077 25.2683 21.0833ZM16.5574 33.7715C17.5031 33.001 18.6617 32.5833 19.8537 32.5833C21.0456 32.5833 22.2042 33.001 23.1499 33.7716C24.0955 34.5421 24.7753 35.6225 25.0838 36.8451C25.3418 37.8676 26.3315 38.4744 27.2943 38.2004C28.2571 37.9264 28.8285 36.8755 28.5706 35.853C28.0564 33.8153 26.9234 32.0146 25.3474 30.7304C23.7713 29.4461 21.8402 28.75 19.8537 28.75C17.8671 28.75 15.936 29.4461 14.36 30.7304C12.7839 32.0146 11.6509 33.8152 11.1368 35.853C10.8788 36.8755 11.4502 37.9264 12.413 38.2004C13.3758 38.4744 14.3655 37.8676 14.6235 36.8451C14.932 35.6225 15.6118 34.5421 16.5574 33.7715Z" fill="white"/>
</svg>
