<svg width="52" height="47" viewBox="0 0 52 47" fill="none" xmlns="http://www.w3.org/2000/svg">
<g id="Frame">
<path id="Vector" d="M6.7998 17.525V39.574C6.7998 40.7675 7.27391 41.9121 8.11782 42.756C8.96174 43.5999 10.1063 44.074 11.2998 44.074H40.6998C41.8933 44.074 43.0379 43.5999 43.8818 42.756C44.7257 41.9121 45.1998 40.7675 45.1998 39.574V17.525C45.1998 16.8264 45.0372 16.1374 44.7247 15.5125C44.4123 14.8877 43.9587 14.3442 43.3998 13.925L28.6998 2.9C27.9209 2.3158 26.9735 2 25.9998 2C25.0261 2 24.0787 2.3158 23.2998 2.9L8.5998 13.925C8.04092 14.3442 7.58731 14.8877 7.27488 15.5125C6.96246 16.1374 6.7998 16.8264 6.7998 17.525V17.525Z" stroke="white" stroke-width="4" stroke-linecap="round" stroke-linejoin="round"/>
<path id="Vector_2" d="M19.9258 44.074V38.149C19.9258 36.538 20.5657 34.9929 21.7048 33.8537C22.8438 32.7144 24.3888 32.0742 25.9998 32.074V32.074C26.7975 32.074 27.5874 32.2311 28.3244 32.5364C29.0614 32.8417 29.7311 33.2892 30.2951 33.8534C30.8591 34.4175 31.3065 35.0872 31.6117 35.8242C31.9169 36.5613 32.0739 37.3512 32.0738 38.149V44.074" stroke="white" stroke-width="4" stroke-linecap="round" stroke-linejoin="round"/>
<path id="Vector_3" d="M13.201 10.4741L2 19.1691" stroke="white" stroke-width="4" stroke-linecap="round" stroke-linejoin="round"/>
<path id="Vector_4" d="M40.3994 11.675L49.9994 18.875" stroke="white" stroke-width="4" stroke-linecap="round" stroke-linejoin="round"/>
</g>
</svg>
