<svg width="40" height="47" viewBox="0 0 40 47" fill="none" xmlns="http://www.w3.org/2000/svg">
<g id="Vector">
<path id="Vector-9" d="M20.0509 10.4479C21.1551 10.4201 22.0277 9.50239 21.9999 8.39817C21.9721 7.29395 21.0545 6.42133 19.9502 6.44912L20.0509 10.4479ZM5.77895 24.0144H7.77895C7.77895 23.9996 7.77879 23.9849 7.77846 23.9702L5.77895 24.0144ZM5.77895 30.2402L5.88508 32.2374C6.94691 32.1809 7.77895 31.3035 7.77895 30.2402H5.77895ZM5.77895 38.5431L5.67281 40.5402C5.70816 40.5421 5.74355 40.5431 5.77895 40.5431V38.5431ZM13.9964 40.5431C15.101 40.5431 15.9964 39.6476 15.9964 38.5431C15.9964 37.4385 15.101 36.5431 13.9964 36.5431V40.5431ZM18.0005 8.44884C18.0005 9.5534 18.896 10.4488 20.0005 10.4488C21.1051 10.4488 22.0005 9.5534 22.0005 8.44884H18.0005ZM22.0005 2C22.0005 0.89543 21.1051 0 20.0005 0C18.896 0 18.0005 0.89543 18.0005 2H22.0005ZM20.0497 6.44912C18.9454 6.42133 18.0278 7.29395 18 8.39817C17.9722 9.50239 18.8448 10.4201 19.949 10.4479L20.0497 6.44912ZM34.2209 24.0144L32.2214 23.9702C32.2211 23.9849 32.2209 23.9996 32.2209 24.0144H34.2209ZM34.2209 30.2402H32.2209C32.2209 31.3035 33.053 32.1809 34.1148 32.2374L34.2209 30.2402ZM34.2209 38.5431V40.5431C34.2563 40.5431 34.2917 40.5421 34.3271 40.5402L34.2209 38.5431ZM26.0035 36.5431C24.8989 36.5431 24.0035 37.4385 24.0035 38.5431C24.0035 39.6476 24.8989 40.5431 26.0035 40.5431V36.5431ZM15.9932 38.5502C15.9971 37.4456 15.1048 36.5471 14.0003 36.5432C12.8957 36.5393 11.9971 37.4316 11.9933 38.5362L15.9932 38.5502ZM15.751 43.1111L17.2228 41.7569L17.2196 41.7534L15.751 43.1111ZM24.2438 43.1111L22.7753 41.7534L22.772 41.7569L24.2438 43.1111ZM28.0016 38.5362C27.9977 37.4316 27.0991 36.5393 25.9946 36.5432C24.89 36.5471 23.9977 37.4456 24.0016 38.5502L28.0016 38.5362ZM13.9913 36.5441C12.8868 36.5441 11.9913 37.4395 11.9913 38.5441C11.9913 39.6486 12.8868 40.5441 13.9913 40.5441V36.5441ZM26.0048 40.5441C27.1094 40.5441 28.0048 39.6486 28.0048 38.5441C28.0048 37.4395 27.1094 36.5441 26.0048 36.5441V40.5441ZM19.9502 6.44912C10.7262 6.68127 3.57134 14.6413 3.77944 24.0585L7.77846 23.9702C7.61545 16.5934 13.1903 10.6205 20.0509 10.4479L19.9502 6.44912ZM3.77895 24.0144V30.2402H7.77895V24.0144H3.77895ZM5.67282 28.243C2.41954 28.4159 0 31.1904 0 34.3916H4C4 33.1656 4.9035 32.2895 5.88508 32.2374L5.67282 28.243ZM0 34.3916C0 37.5928 2.41955 40.3673 5.67281 40.5402L5.88508 36.5459C4.9035 36.4937 4 35.6176 4 34.3916H0ZM5.77895 40.5431H13.9964V36.5431H5.77895V40.5431ZM22.0005 8.44884V2H18.0005V8.44884H22.0005ZM19.949 10.4479C26.8096 10.6205 32.3844 16.5934 32.2214 23.9702L36.2205 24.0585C36.4286 14.6413 29.2737 6.68127 20.0497 6.44912L19.949 10.4479ZM32.2209 24.0144V30.2402H36.2209V24.0144H32.2209ZM34.1148 32.2374C35.0964 32.2895 35.9999 33.1656 35.9999 34.3916H39.9999C39.9999 31.1904 37.5804 28.4159 34.3271 28.243L34.1148 32.2374ZM35.9999 34.3916C35.9999 35.6176 35.0964 36.4937 34.1148 36.5459L34.3271 40.5402C37.5804 40.3673 39.9999 37.5928 39.9999 34.3916H35.9999ZM34.2209 36.5431H26.0035V40.5431H34.2209V36.5431ZM11.9933 38.5362C11.9856 40.7339 12.7983 42.8634 14.2824 44.4688L17.2196 41.7534C16.4375 40.9075 15.989 39.7595 15.9932 38.5502L11.9933 38.5362ZM14.2792 44.4653C15.7583 46.0728 17.8209 46.9999 19.9974 46.9999V42.9999C18.9686 42.9999 17.9644 42.5629 17.2228 41.7569L14.2792 44.4653ZM19.9974 46.9999C22.174 46.9999 24.2366 46.0728 25.7156 44.4653L22.772 41.7569C22.0305 42.5629 21.0262 42.9999 19.9974 42.9999V46.9999ZM25.7124 44.4688C27.1966 42.8634 28.0093 40.7339 28.0016 38.5362L24.0016 38.5502C24.0058 39.7595 23.5573 40.9075 22.7753 41.7534L25.7124 44.4688ZM13.9913 40.5441H26.0048V36.5441H13.9913V40.5441Z" fill="white"/>
</g>
</svg>
