<svg width="51" height="46" viewBox="0 0 51 46" fill="none" xmlns="http://www.w3.org/2000/svg">
<g id="Group 3">
<path id="Vector" d="M51 42.7195H0V45.9997H51V42.7195Z" fill="white"/>
<path id="Vector_2" d="M41.6611 36.8835V23.7624H44.8486V20.4822H6.59863V23.7624H9.78613V36.8835H3.41113V40.1637H48.0361V36.8835H41.6611ZM19.3486 36.8835H12.9736V23.7624H19.3486V36.8835ZM22.5361 36.8835V23.7624H28.9111V36.8835H22.5361ZM38.4736 36.8835H32.0986V23.7624H38.4736V36.8835Z" fill="white"/>
<path id="Vector_3" d="M50.1551 13.3179L26.2488 0.196816C25.7866 -0.0656052 25.2129 -0.0656052 24.7507 0.196816L0.844461 13.3179C0.191024 13.6623 -0.127726 14.4331 0.0475864 15.1548C0.222899 15.8929 0.860399 16.4013 1.59352 16.4013H49.406C50.1391 16.4013 50.7766 15.8929 50.952 15.1548C51.1273 14.4331 50.8085 13.6623 50.1551 13.3179ZM7.96852 13.121L25.4998 3.49348L43.031 13.121H7.96852Z" fill="white"/>
</g>
</svg>
